<svg xmlns="http://www.w3.org/2000/svg" viewBox="0 0 102.05 91.94"><defs><style>.cls-1{fill:#c63332;}.cls-2{fill:#4b71b5;}.cls-3{fill:#2f4a96;}.cls-4{fill:#4164aa;}.cls-5{fill:#5680bf;}.cls-6{fill:#608cc9;}</style></defs><g id="Layer_2" data-name="Layer 2"><g id="Слой_1" data-name="Слой 1"><path d="M8 57.77c5.32 0 7.37 1.8 7.37 6.08v9.54a.54.54 0 0 1-.55.58h-4.3a.56.56 0 0 1-.58-.58v-.52a6.35 6.35 0 0 1-4.4 1.47c-3.12 0-5.53-1.93-5.53-5 0-3.36 2.38-5.5 7.37-5.5h2.55v-.73c0-1.22-.7-1.71-2.66-1.71a12.08 12.08 0 0 0-4.83 1 .56.56 0 0 1-.82-.4l-.34-2.32a.56.56 0 0 1 .34-.68A17.65 17.65 0 0 1 8 57.77zM9.93 69.9v-2.66H7.55c-1.68 0-2.45.7-2.45 1.93s.83 1.74 2.14 1.74a3.42 3.42 0 0 0 2.69-1.01zm9.19 4.1a.56.56 0 0 1-.58-.58V58.68a.58.58 0 0 1 .58-.55h6.48c5.14 0 7.95 1.41 7.95 4.4a3.33 3.33 0 0 1-1.77 3 3.77 3.77 0 0 1 2.51 3.58C34.28 72.29 31.47 74 26 74zm6.11-12.41h-1.31v2.66h1.31c1.86 0 2.72-.34 2.72-1.34s-.85-1.35-2.72-1.35zm.21 5.93h-1.52v3.06h1.53c2.11 0 3-.52 3-1.53s-.89-1.56-3-1.56zm24.79 3.05l.24 2.26a.61.61 0 0 1-.43.67 13.45 13.45 0 0 1-4.86.83c-6.57 0-9.41-3.61-9.41-8.31 0-5.07 3.12-8.25 8.07-8.25 5.17 0 8.07 3.42 8.07 8.47v1a.59.59 0 0 1-.55.52H41.15c.24 2.32 2 3.15 4.34 3.15a9.57 9.57 0 0 0 3.88-.76c.47-.22.83-.03.86.42zm-9.08-6.2h5.41c-.12-2-1.1-3.09-2.72-3.09s-2.56 1.04-2.69 3.09zm23.5-.52v-5.17a.58.58 0 0 1 .58-.55h4.49a.59.59 0 0 1 .55.55v14.7a.58.58 0 0 1-.55.58h-4.48a.56.56 0 0 1-.58-.58v-6h-4.77v6a.54.54 0 0 1-.55.58h-4.5a.56.56 0 0 1-.58-.58v-14.7a.58.58 0 0 1 .58-.55h4.49a.55.55 0 0 1 .55.55v5.17zm17.62 9.54a.57.57 0 0 1-.55.58h-4.49a.56.56 0 0 1-.58-.58V61.74h-4.22a.56.56 0 0 1-.58-.58v-2.48a.58.58 0 0 1 .58-.55h14.09a.55.55 0 0 1 .55.55v2.48a.54.54 0 0 1-.55.58h-4.25zm15.01.94c-5.93 0-9.51-3.12-9.51-8.28s3.64-8.28 9.41-8.28a11.61 11.61 0 0 1 4.31.73.59.59 0 0 1 .43.67l-.21 2.45c0 .46-.43.58-.89.37a7.85 7.85 0 0 0-3-.55c-2.6 0-4.34 1.65-4.34 4.62s1.65 4.62 4.43 4.62a8.12 8.12 0 0 0 3.06-.58c.46-.21.86-.09.89.37l.14 2.43a.61.61 0 0 1-.43.67 11.72 11.72 0 0 1-4.29.76z" class="cls-1"></path><path d="M82.22 20.05A112.19 112.19 0 0 0 70.73 8.91a54.05 54.05 0 0 0-8.83-6.1A17.62 17.62 0 0 0 54.61.46c-10.07-.35-28 15-39.23 27.36C8.34 35.52 3.24 42.24 4.9 43s6.62-3.37 12.79-7.86c5.85-4.26 13-9.29 19.71-12.47a26.83 26.83 0 0 1 11.18-2.95 33.58 33.58 0 0 1 11.31 2.17c11.23 4.22 21.39 13.29 28.36 18.5 3.94 3 7.15 4.91 8.62 3.67 2.49-2.15-5.11-13.42-14.65-24.01z" class="cls-2"></path><path d="M77.39 43.09c-3.9-4.31-10.07-7.44-16.76-9.29-7.64-2.12-16-2.57-22.34-1.19-6.12 1.32-10.47 4.33-10.73 9.16-.12 2.36 11.42 3.66 23.45 4a166 166 0 0 0 20.86-.58c4.04-.47 6.36-1.19 5.52-2.1z" class="cls-2"></path><path d="M17.36 35.65a17.24 17.24 0 0 1-2.7-7.72c-7.19 7.86-11.75 14.51-10 15.25s6.4-2.95 12.7-7.53z" class="cls-3"></path><path d="M37.34 22.87c2.13-8.64 11.51-16.05 24.79-20.46A18 18 0 0 0 54.69 0c-10.28-.36-28.53 15.34-40 27.92a17.24 17.24 0 0 0 2.7 7.72c5.93-4.33 13.15-9.53 19.95-12.77z" class="cls-4"></path><path d="M37.34 22.87c4-1.9 7.84-3.13 11.21-3.1a32.89 32.89 0 0 1 11.27 2.29c1.52-5 5.52-9.63 11.31-13.43a55.16 55.16 0 0 0-9-6.23C48.85 6.82 39.47 14.23 37.34 22.87z" class="cls-2"></path><path d="M59.82 22.06c11.46 4.31 21.86 13.68 29 19-4.69-4.24-7.39-9.17-7.39-14.44A16.13 16.13 0 0 1 82.86 20 114.48 114.48 0 0 0 71.13 8.63c-5.79 3.79-9.79 8.37-11.31 13.43z" class="cls-5"></path><path d="M88.78 41.06c4 3 7 4.73 8.5 3.46C99.83 42.36 92.59 30.8 82.86 20a16.13 16.13 0 0 0-1.46 6.61c0 5.28 2.7 10.21 7.38 14.45z" class="cls-6"></path><path d="M38 32.48c-6.25 1.35-10.69 4.42-10.95 9.35-.12 2.41 11.66 3.74 23.95 4.07-6.41-3.71-11-8.31-13-13.42z" class="cls-4"></path><path d="M60.8 33.69C53 31.53 44.52 31.07 38 32.48c2 5.11 6.58 9.71 13 13.41a169.42 169.42 0 0 0 21.29-.59c-5.41-3.3-9.4-7.24-11.49-11.61z" class="cls-2"></path><path d="M72.27 45.31c4.12-.47 6.49-1.18 5.63-2.13-4-4.4-10.28-7.59-17.11-9.48 2.1 4.36 6.09 8.3 11.48 11.61z" class="cls-5"></path><path d="M32.71 82.85v5.91a.28.28 0 0 1-.27.29h-1.68a.28.28 0 0 1-.29-.29v-7.22a.28.28 0 0 1 .29-.27h5.38a.29.29 0 0 1 .27.27v1a.28.28 0 0 1-.27.29zm7.06 8.82a.28.28 0 0 1-.29.27h-1.66a.28.28 0 0 1-.29-.27V81.54a.28.28 0 0 1 .29-.27h1.67a.28.28 0 0 1 .29.27v.24a3 3 0 0 1 2-.69c2 0 3.45 1.54 3.45 4.06s-1.47 4.06-3.45 4.06a3.05 3.05 0 0 1-2-.69zm0-4.63a1.87 1.87 0 0 0 1.39.58c1 0 1.75-.78 1.75-2.46s-.72-2.46-1.75-2.46a1.86 1.86 0 0 0-1.39.57zM48.94 89l-3-7.38a.27.27 0 0 1 .25-.37h1.71a.29.29 0 0 1 .29.18l1.79 5 1.77-5a.29.29 0 0 1 .29-.18h1.71a.27.27 0 0 1 .25.38l-3.73 10.11a.29.29 0 0 1-.31.19h-1.71a.27.27 0 0 1-.25-.37zm8.7-6.15v5.91a.28.28 0 0 1-.27.29h-1.68a.28.28 0 0 1-.29-.29v-7.22a.28.28 0 0 1 .29-.27h6.55a.29.29 0 0 1 .27.27v7.21a.28.28 0 0 1-.27.29h-1.68a.28.28 0 0 1-.29-.29v-5.9zm9.06 0v5.91a.28.28 0 0 1-.27.29h-1.68a.28.28 0 0 1-.29-.29v-7.22a.28.28 0 0 1 .29-.27h6.55a.29.29 0 0 1 .27.27v7.21a.28.28 0 0 1-.27.29h-1.68a.28.28 0 0 1-.29-.29v-5.9z" class="cls-2"></path></g></g></svg>
